<svg width="40" height="40" viewBox="0 0 40 40" fill="none" xmlns="http://www.w3.org/2000/svg">
<g filter="url(#filter0_dd)">
<rect x="4.5" y="0.5" width="31" height="31" rx="6.5" fill="white" stroke="#F8F8F8"/>
<path d="M25.149 11.356L25.1484 11.3554C24.8095 11.0258 24.4097 10.7636 23.9705 10.5833L23.9696 10.5829C23.5139 10.3951 23.0249 10.2989 22.5311 10.3L22.5295 10.3C21.8346 10.3 21.1584 10.4887 20.5717 10.8438L20.5717 10.8439C20.4313 10.9288 20.2985 11.0218 20.173 11.1228L19.7341 11.476L19.2953 11.1228C19.1698 11.0218 19.037 10.9288 18.8966 10.8439L18.8966 10.8438C18.3099 10.4887 17.6337 10.3 16.9388 10.3C16.4373 10.3 15.9546 10.395 15.4987 10.5829L15.498 10.5832C15.057 10.7644 14.6606 11.0243 14.3197 11.3556L14.3187 11.3566L14.3187 11.3566C13.9811 11.6834 13.7117 12.0725 13.5256 12.5016L25.149 11.356ZM25.149 11.356C25.4865 11.6835 25.756 12.0728 25.9429 12.5021C26.1365 12.9486 26.2347 13.4203 26.2333 13.9064V13.9084C26.2333 14.3625 26.1399 14.8512 25.9418 15.3651L25.9412 15.3667M25.149 11.356L25.9412 15.3667M16.3799 19.1131L16.38 19.1132C17.1291 19.7996 17.8773 20.3822 18.4475 20.7988C18.732 21.0066 18.9709 21.1721 19.1415 21.2873C19.2268 21.345 19.2948 21.3899 19.3428 21.4212C19.3936 21.4543 19.417 21.469 19.4155 21.468L19.4266 21.4748L19.4266 21.4749L19.7333 21.6701L20.0401 21.4749L20.0402 21.4748C20.0914 21.4423 21.5822 20.4902 23.0868 19.1131H16.3799ZM16.3799 19.1131C15.4753 18.2845 14.7634 17.4818 14.255 16.7299M16.3799 19.1131L14.255 16.7299M25.9412 15.3667C25.7771 15.7954 25.5328 16.2542 25.2114 16.7303M25.9412 15.3667L25.2114 16.7303M14.255 16.7299C13.9347 16.2553 13.6912 15.796 13.5249 15.3651L14.255 16.7299ZM25.2114 16.7303C24.7031 17.482 23.9913 18.2845 23.087 19.1129L25.2114 16.7303ZM13.2333 13.9084C13.2333 13.4208 13.3318 12.9483 13.5255 12.5017L13.5247 15.3648C13.3267 14.851 13.2333 14.3624 13.2333 13.9084Z" stroke="#ECECEC" stroke-width="1.4"/>
</g>
<defs>
<filter id="filter0_dd" x="0" y="0" width="40" height="40" filterUnits="userSpaceOnUse" color-interpolation-filters="sRGB">
<feFlood flood-opacity="0" result="BackgroundImageFix"/>
<feColorMatrix in="SourceAlpha" type="matrix" values="0 0 0 0 0 0 0 0 0 0 0 0 0 0 0 0 0 0 127 0" result="hardAlpha"/>
<feOffset dy="4"/>
<feGaussianBlur stdDeviation="2"/>
<feComposite in2="hardAlpha" operator="out"/>
<feColorMatrix type="matrix" values="0 0 0 0 0 0 0 0 0 0 0 0 0 0 0 0 0 0 0.25 0"/>
<feBlend mode="normal" in2="BackgroundImageFix" result="effect1_dropShadow"/>
<feColorMatrix in="SourceAlpha" type="matrix" values="0 0 0 0 0 0 0 0 0 0 0 0 0 0 0 0 0 0 127 0" result="hardAlpha"/>
<feOffset dy="4"/>
<feGaussianBlur stdDeviation="2"/>
<feComposite in2="hardAlpha" operator="out"/>
<feColorMatrix type="matrix" values="0 0 0 0 0 0 0 0 0 0 0 0 0 0 0 0 0 0 0.25 0"/>
<feBlend mode="normal" in2="effect1_dropShadow" result="effect2_dropShadow"/>
<feBlend mode="normal" in="SourceGraphic" in2="effect2_dropShadow" result="shape"/>
</filter>
</defs>
</svg>
